<?xml version="1.0" encoding="UTF-8" standalone="no"?>
<svg
   width="300"
   height="300"
   viewBox="0 0 300 300"
   fill="none"
   version="1.1"
   id="svg13"
   sodipodi:docname="icon-grid-texto-fala-tts.svg"
   xml:space="preserve"
   inkscape:version="1.2.2 (b0a8486541, 2022-12-01)"
   xmlns:inkscape="http://www.inkscape.org/namespaces/inkscape"
   xmlns:sodipodi="http://sodipodi.sourceforge.net/DTD/sodipodi-0.dtd"
   xmlns="http://www.w3.org/2000/svg"
   xmlns:svg="http://www.w3.org/2000/svg"><sodipodi:namedview
     id="namedview15"
     pagecolor="#ffffff"
     bordercolor="#000000"
     borderopacity="0.25"
     inkscape:showpageshadow="2"
     inkscape:pageopacity="0.0"
     inkscape:pagecheckerboard="0"
     inkscape:deskcolor="#d1d1d1"
     showgrid="false"
     inkscape:zoom="1.4133333"
     inkscape:cx="-143.27831"
     inkscape:cy="262.14623"
     inkscape:window-width="2560"
     inkscape:window-height="1000"
     inkscape:window-x="1680"
     inkscape:window-y="0"
     inkscape:window-maximized="1"
     inkscape:current-layer="svg13" /><path
     fill-rule="evenodd"
     clip-rule="evenodd"
     d="M117.219 1.54894C118.853 1.56634 120.415 1.35815 121.905 0.924425C141.483 -0.358145 161.061 -0.306123 180.637 1.08055C198.388 2.46358 215.57 6.31479 232.185 12.6341C259.807 24.006 278.708 43.7304 288.887 71.8071C294.708 88.7112 298.145 106.094 299.196 123.954C300.651 146.383 300.131 168.761 297.634 191.09C295.766 206.784 291.704 221.877 285.45 236.367C273.851 261.492 255.055 278.822 229.061 288.358C207.997 295.476 186.336 299.223 164.08 299.6C139.045 300.902 114.261 299.028 89.7269 293.979C44.569 283.92 16.7126 256.389 6.15787 211.387C1.67882 191.129 -0.351829 170.624 0.0659221 149.872C-0.433961 127.805 1.9091 106.051 7.09509 84.6097C18.1597 42.5329 44.8705 16.4592 87.2276 6.38895C97.0975 3.97597 107.095 2.36263 117.219 1.54894Z"
     fill="url(#paint0_radial_29_149)"
     id="path2" /><defs
     id="defs11"><radialGradient
       id="paint0_radial_29_149"
       cx="0"
       cy="0"
       r="1"
       gradientUnits="userSpaceOnUse"
       gradientTransform="translate(150) rotate(90) scale(150)"><stop
         stop-color="#80D2FF"
         id="stop6"
         offset="0"
         style="stop-color:#faf6f0;stop-opacity:1;" /><stop
         offset="1"
         stop-color="#2991C9"
         id="stop8"
         style="stop-color:#d3d6d8;stop-opacity:1;" /></radialGradient><style
       id="style121">.cls-1{fill:#faf6f0;}.cls-2{fill:#d3d6d8;}.cls-3{fill:#d4d7d9;}.cls-4{fill:#fff;stroke:#002a44;stroke-miterlimit:10;stroke-width:4px;}.cls-5{fill:#002a44;}</style><radialGradient
       id="paint0_radial_0_1"
       cx="0"
       cy="0"
       r="1"
       gradientUnits="userSpaceOnUse"
       gradientTransform="matrix(0,150.00001,-150.00001,0,-49.61745,0.742838)"><stop
         stop-color="#6EBBF7"
         id="stop349" /><stop
         offset="1"
         stop-color="#2196F3"
         id="stop351" /></radialGradient><style
       id="style418">.cls-1{fill:#faf6f0;}.cls-2{fill:#d3d6d8;}.cls-3{fill:#d4d7d9;}.cls-4{fill:#fff;stroke:#002a44;stroke-miterlimit:10;stroke-width:4px;}.cls-5{fill:#002a44;}</style><style
       id="style1253">.cls-1{fill:#faf6f0;}.cls-2{fill:#d3d6d8;}.cls-3{fill:#d4d7d9;}.cls-4{fill:#fff;stroke:#002a44;stroke-miterlimit:10;stroke-width:4px;}.cls-5{fill:#002a44;}</style></defs><g
     id="g333"
     transform="matrix(1.2616131,0,0,1.2616131,-21.938032,-55.983914)"
     style="fill:#8596a1;fill-opacity:1"><rect
       class="cls-3"
       x="72"
       y="189.26735"
       width="128.56856"
       height="9.6501913"
       rx="4.8182321"
       id="rect129"
       style="stroke-width:1.37272;fill:#8596a1;fill-opacity:1" /><rect
       class="cls-3"
       x="72"
       y="159.32843"
       width="128.56856"
       height="9.6501913"
       rx="4.8182321"
       id="rect131"
       style="stroke-width:1.37272;fill:#8596a1;fill-opacity:1" /><rect
       class="cls-3"
       x="72"
       y="129.37578"
       width="128.56856"
       height="9.6501913"
       rx="4.8182321"
       id="rect133"
       style="stroke-width:1.37272;fill:#8596a1;fill-opacity:1" /><rect
       class="cls-3"
       x="72"
       y="219.22002"
       width="64.284271"
       height="9.6501913"
       rx="4.8182321"
       id="rect137"
       style="stroke-width:1.37272;fill:#8596a1;fill-opacity:1" /></g><g
     id="g343"
     transform="matrix(1.0631906,0,0,1.0631906,-17.160138,-2.2476011)"><path
       class="cls-4"
       d="M 255.09281,37.568557 H 150.51934 a 14.495877,14.495877 0 0 0 -14.4547,14.454696 V 114.7289 a 14.495877,14.495877 0 0 0 14.4547,14.4547 h 17.3374 v 27.60532 l 27.6053,-27.60532 h 59.63077 a 14.509604,14.509604 0 0 0 14.46842,-14.4547 V 52.023253 A 14.509604,14.509604 0 0 0 255.09281,37.568557 Z"
       id="path143" /><rect
       class="cls-5"
       x="186.88257"
       y="50.499538"
       width="6.9733953"
       height="66.151161"
       rx="3.4866977"
       id="rect145"
       style="stroke-width:1.37272" /><rect
       class="cls-5"
       x="199.31937"
       y="56.896389"
       width="6.9733953"
       height="53.371185"
       rx="3.4866977"
       id="rect147"
       style="stroke-width:1.37272" /><rect
       class="cls-5"
       x="211.76991"
       y="72.874802"
       width="6.9733953"
       height="21.400637"
       rx="3.4866977"
       id="rect149"
       style="stroke-width:1.37272" /><rect
       class="cls-5"
       x="224.20671"
       y="68.605659"
       width="6.9733953"
       height="29.938927"
       rx="3.4866977"
       id="rect151"
       style="stroke-width:1.37272" /><rect
       class="cls-5"
       x="236.64351"
       y="78.901024"
       width="6.9733953"
       height="9.3619204"
       rx="3.4866977"
       id="rect153"
       style="stroke-width:1.37272" /><rect
       class="cls-5"
       x="162.00897"
       y="72.874802"
       width="6.9733953"
       height="21.400637"
       rx="3.4866977"
       id="rect155"
       style="stroke-width:1.37272" /><rect
       class="cls-5"
       x="174.44576"
       y="68.605659"
       width="6.9733953"
       height="29.938927"
       rx="3.4866977"
       id="rect157"
       style="stroke-width:1.37272" /></g><path
     id="path6"
     d="m 224.03539,208.7537 a 21.493478,21.493478 0 0 1 11.42,-6.44293 c 1.46586,0 2.93171,-0.18749 4.32938,-0.25567 a 13.635831,13.635831 0 0 1 4.84072,1.26131 20.078761,20.078761 0 0 1 6.18726,5.60774 26.16375,26.16375 0 0 1 4.84072,11.04502 27.578468,27.578468 0 0 1 0.13636,4.10779 17.317505,17.317505 0 0 1 -2.04538,-3.64758 18.084521,18.084521 0 0 0 -3.51122,-4.2612 11.31774,11.31774 0 0 0 -7.51676,-3.11919 9.9882461,9.9882461 0 0 0 -3.18737,0.40907 15.630071,15.630071 0 0 0 -7.56789,4.58505 c -0.66474,0.8011 -1.39767,1.53403 -1.99424,2.33513 -0.59656,1.05678 -1.32949,1.99425 -1.80674,3.06807 a 24.067241,24.067241 0 0 0 -2.71013,10.09051 c 0.11932,1.39767 0.11932,2.72717 0.25568,4.12484 0.40907,0.93746 0.20453,2.19878 1.19313,2.72717 a 4.5850481,4.5850481 0 0 0 1.99424,-0.51135 50.963918,50.963918 0 0 0 4.2612,-3.98848 c 1.58516,-1.32949 2.72716,-3.06806 4.24415,-4.51687 0.86929,-0.66474 1.39767,-1.53403 2.26696,-2.19877 a 30.237455,30.237455 0 0 1 5.11343,-4.1078 8.5223943,8.5223943 0 0 1 4.72141,-1.26131 7.414483,7.414483 0 0 1 5.11344,2.98284 23.215002,23.215002 0 0 1 3.56236,7.97696 c 0.34089,1.4488 0.20454,2.98283 0.40907,4.51687 a 52.037739,52.037739 0 0 1 -2.65898,14.8801 21.118493,21.118493 0 0 1 -2.33514,4.78958 c -0.32385,0.39203 -0.52839,0.92042 -1.00564,1.05678 a 26.964855,26.964855 0 0 1 0.4943,-2.93171 12.902905,12.902905 0 0 0 0.13635,-3.23851 31.379456,31.379456 0 0 0 0,-5.11343 c -0.39203,-1.70448 -0.4602,-3.40896 -1.02268,-5.11344 a 13.294935,13.294935 0 0 0 -1.31245,-3.40896 5.3861532,5.3861532 0 0 0 -1.32949,-1.85788 4.6020929,4.6020929 0 0 0 -2.40332,-1.02269 10.03938,10.03938 0 0 0 -1.92606,0.59657 18.289058,18.289058 0 0 0 -3.85212,3.57941 23.419539,23.419539 0 0 1 -3.25556,2.79534 8.6928422,8.6928422 0 0 1 -6.0509,1.70448 19.533328,19.533328 0 0 1 -8.23263,-2.9317 15.885743,15.885743 0 0 1 -3.25556,-2.59081 16.328907,16.328907 0 0 1 -4.39755,-9.15305 7.5678861,7.5678861 0 0 1 -0.18749,-3.20442 27.83414,27.83414 0 0 1 3.11919,-12.15294 33.646413,33.646413 0 0 1 3.30669,-4.97707 5.0111678,5.0111678 0 0 1 1.61926,-2.23287 z"
     style="fill:#002a44;fill-opacity:1;stroke-width:1.70448" /><path
     id="path3742"
     d="m 190.06512,265.8367 a 21.595747,21.595747 0 0 1 -11.43705,6.44293 c -1.46585,0 -2.91466,0.20453 -4.31233,0.27271 a 14.113085,14.113085 0 0 1 -4.85777,-1.26131 19.993537,19.993537 0 0 1 -6.17021,-5.65887 26.129661,26.129661 0 0 1 -4.85776,-11.02798 30.237455,30.237455 0 0 1 -0.13636,-4.12484 16.789117,16.789117 0 0 1 2.04537,3.66463 17.351595,17.351595 0 0 0 3.52827,4.24415 11.334784,11.334784 0 0 0 7.49971,3.13624 10.49959,10.49959 0 0 0 3.18738,-0.40907 15.595982,15.595982 0 0 0 7.58493,-4.60209 c 0.66474,-0.78406 1.38062,-1.51699 1.97719,-2.31809 a 33.510054,33.510054 0 0 0 1.80675,-3.06807 24.339958,24.339958 0 0 0 2.72717,-10.09051 c -0.13636,-1.39767 -0.13636,-2.72717 -0.27272,-4.12484 -0.39203,-0.93746 -0.20454,-2.19878 -1.19314,-2.72717 a 3.4089577,3.4089577 0 0 0 -1.99424,0.51135 26.9819,26.9819 0 0 0 -4.26119,3.98848 c -1.58517,1.32949 -2.71013,3.06806 -4.24416,4.51687 -0.86928,0.66474 -1.39767,1.53403 -2.26695,2.19877 a 31.209008,31.209008 0 0 1 -5.11344,4.12484 8.8121557,8.8121557 0 0 1 -4.72141,1.26132 7.414483,7.414483 0 0 1 -5.11343,-2.99989 22.788882,22.788882 0 0 1 -3.57941,-7.97696 c -0.34089,-1.4488 -0.20454,-2.98283 -0.40907,-4.51687 a 52.037739,52.037739 0 0 1 2.65898,-14.8801 21.493478,21.493478 0 0 1 2.33514,-4.78958 c 0.32385,-0.39203 0.51134,-0.92042 0.9886,-1.05678 a 21.612792,21.612792 0 0 1 -0.51135,2.91466 13.175622,13.175622 0 0 0 0.017,3.30669 31.191963,31.191963 0 0 0 0,5.11344 c 0.39203,1.70448 0.46021,3.40895 0.9886,5.11343 a 12.544964,12.544964 0 0 0 1.32949,3.40896 5.1134366,5.1134366 0 0 0 1.32949,1.85788 4.5850481,4.5850481 0 0 0 2.38627,1.00565 9.3916785,9.3916785 0 0 0 1.92607,-0.61362 17.419774,17.419774 0 0 0 3.85212,-3.56236 23.266136,23.266136 0 0 1 3.25555,-2.79534 8.7610213,8.7610213 0 0 1 6.0509,-1.70448 19.601507,19.601507 0 0 1 8.24968,2.9317 17.573177,17.573177 0 0 1 3.23851,2.59081 16.465266,16.465266 0 0 1 4.46573,9.20419 7.4656174,7.4656174 0 0 1 0.1875,3.18737 27.783005,27.783005 0 0 1 -3.1192,12.15293 30.868112,30.868112 0 0 1 -3.32373,4.97708 5.6077354,5.6077354 0 0 1 -1.72153,2.18174 z"
     style="fill:#002a44;fill-opacity:1;stroke-width:1.70448" /><path
     id="path10"
     d="m 199.09886,212.48651 a 10.942754,10.942754 0 0 1 9.03374,0.66474 7.2440351,7.2440351 0 0 1 2.33513,2.77831 4.9600335,4.9600335 0 0 1 -0.27271,4.32937 9.2382754,9.2382754 0 0 1 -4.05666,4.05666 9.1189619,9.1189619 0 0 1 -4.1078,1.12496 9.0166931,9.0166931 0 0 1 -4.60209,-0.59657 6.5622436,6.5622436 0 0 1 -3.9203,-4.05666 5.1134366,5.1134366 0 0 1 0.66475,-4.12484 9.1360067,9.1360067 0 0 1 4.92594,-4.17597 z"
     style="fill:#002a44;fill-opacity:1;stroke-width:1.70448" /><path
     id="path12"
     d="m 199.35453,230.09377 a 6.8179154,6.8179154 0 0 1 5.91454,-3.25555 8.948514,8.948514 0 0 1 3.52828,0.92042 5.3691084,5.3691084 0 0 1 3.25555,3.66463 29.589753,29.589753 0 0 0 0.59657,5.84636 22.158225,22.158225 0 0 0 6.71564,10.02234 c 1.46586,1.70447 3.40896,2.9317 4.9089,4.65322 a 46.498183,46.498183 0 0 1 -6.6986,-0.69883 22.95933,22.95933 0 0 1 -7.72129,-2.72717 17.044789,17.044789 0 0 1 -3.78394,-2.59081 21.305986,21.305986 0 0 1 -4.72141,-5.24979 16.891385,16.891385 0 0 1 -2.71012,-7.67016 9.0337379,9.0337379 0 0 1 0.71588,-2.91466 z"
     style="fill:#002a44;fill-opacity:1;stroke-width:1.70448" /><path
     style="opacity:1;fill:#8596a1;fill-opacity:1;stroke-width:3.22508;stroke-linecap:round;stroke-linejoin:round"
     d="m 73.584907,194.43445 c -4.574582,-1.69333 -5.641024,-6.69553 -2.068354,-9.70174 l 2.176928,-1.83176 H 150 226.30653 l 2.17692,1.83176 c 2.83393,2.38459 2.97553,5.66183 0.35119,8.12745 l -1.82575,1.71532 -76.18133,0.12591 c -41.89973,0.0692 -76.658926,-0.0509 -77.242653,-0.26694 z"
     id="path3498" /></svg>
