<svg id="Layer_1" data-name="Layer 1" xmlns="http://www.w3.org/2000/svg" viewBox="0 0 372 372"><defs><style>.cls-1{fill:#fff;}</style></defs><path class="cls-1" d="M200,15.8c-102.7,0-186,83.3-186,186s83.3,186,186,186,186-83.3,186-186S302.72,15.8,200,15.8Zm140.5,141.1s-13.7-3.4-40.8,25.9-29.1,28-29.1,28-7.7,5.4-8.6-8.2-3.8-54.8,37.6-77.1c36.6-19.7,56.6,20.6,60.7,30.3a169.54,169.54,0,0,1,4.6,21.4C356.52,158.4,340.52,156.9,340.52,156.9Zm-301.6,89a177.63,177.63,0,0,1-4.3-20.5C43.22,244,59,245.5,59,245.5s13.7,3.4,40.8-25.9,29.1-28,29.1-28,7.7-5.4,8.6,8.2,3.8,54.8-37.6,77.1C62.42,297.1,42.42,254.1,38.92,245.9Zm161,122.8a166.22,166.22,0,0,1-125.8-57.3c9,4.6,20.3,6.6,34.3,4.3,64.9-10.8,62.1-86.2,62.1-86.2s.1-33.4-31.2-50.3c-25.9-14.9-40.8,1.2-43.4,3.8S42,249.8,48.82,130.9c39.2-83.5,138.6-119.4,222-80.2A166.84,166.84,0,0,1,324,90.2c-8.8-4.1-19.5-5.8-32.8-3.5-64.9,10.8-62.1,86.2-62.1,86.2s-.1,33.4,31.2,50.3c25.9,14.9,40.8-1.2,43.4-3.8s54.5-67.6,47,54a166.68,166.68,0,0,1-150.8,95.3Z" transform="translate(-14.02 -15.8)"/><path class="cls-1" d="M178.22,117.7c15.9-3.4,30.8,3.5,33.3,15.4s-8.3,24.3-24.1,27.7-30.8-3.5-33.3-15.4S162.32,121.1,178.22,117.7Z" transform="translate(-14.02 -15.8)"/><path class="cls-1" d="M216.22,187.1a22.46,22.46,0,1,0-44.8,3.4,22.78,22.78,0,0,0,1,5.2s13.2,52,83.5,53.7C255.92,249.3,215.32,220.3,216.22,187.1Z" transform="translate(-14.02 -15.8)"/></svg>